<svg xmlns="http://www.w3.org/2000/svg" xmlns:xlink="http://www.w3.org/1999/xlink"><defs><clipPath id="clip0_2403_439"><path fill="#fff" d="M0 0h202v59H0z"/></clipPath><clipPath id="clip0_153_267"><path fill="#fff" d="M0 0h33.32v37.61H0z"/></clipPath><clipPath id="clip0_135_3354"><path fill="#fff" d="M0 0h101v18H0z"/></clipPath><clipPath id="clip0_2403_706"><path fill="#fff" d="M0 0h174v51.683H0z"/></clipPath></defs><symbol id="logo-desktop"><g fill="none"><g clip-path="url(#clip0_2403_439)"><path d="M59.883 23.806A25.432 25.432 0 0051.83 13.43a25.725 25.725 0 00-12.193-5.02 25.803 25.803 0 00-13.093 1.671 25.59 25.59 0 00-10.515 7.916 25.296 25.296 0 00-5.144 12.06 25.212 25.212 0 001.595 12.997 25.423 25.423 0 007.909 10.484 25.719 25.719 0 0012.122 5.184 113.04 113.04 0 01-1.69-6.794 32.41 32.41 0 004.76 2.529s.12 2.142.28 4.533c1.789.03 3.575-.126 5.33-.466a2.104 2.104 0 010-.754c.29-1.855 1.09-5.198 1.25-7.35a15.114 15.114 0 002.9-3.68l-.06.436c-.55 4.226-1.7 8.74-2.4 9.989a5.536 5.536 0 01-.83 1.14 25.73 25.73 0 009.941-4.727 25.48 25.48 0 007.021-8.43 25.252 25.252 0 00.87-21.341zm-1.47 3.76c-.44.426-1.35.714-1.5-.576a34.09 34.09 0 01-.19-2.192s-1.93-3.402-2.65-3.442c-.72-.04-5.831 3.442-7.181 4.96-1.17 1.28-1.4 1.19-1.4 3.442 0 1.696.22 8.104.1 13.004l-8.15 2.153c-2.562.729-5.168 1.299-7.801 1.706l-1-5.783h-.14l-2.57-13.064s-3.81-1.428-5.21-1.815a3.788 3.788 0 00-4 .625 5.032 5.032 0 00-1.285 1.722 4.995 4.995 0 00-.446 2.097c.212.46.373.943.48 1.438.05.476-1.2.426-2 .426s-.92-1.428-.29-3.104c.492-1.29 1.1-2.531 1.82-3.71a11.776 11.776 0 012.07-2.867s.14-.337 1.25-.238c1.11.1 7.28.427 7.28.427l.05-2.252a143.93 143.93 0 0120.242-1.33v1.816a22.671 22.671 0 018.14-1.984.916.916 0 01.77.387c.34.427 2.41 2.976 2.65 3.343a27.73 27.73 0 011.83 2.976 6.167 6.167 0 01-.87 1.825v.01z" fill="#FDC305"/><path d="M56.463 21.495c.47.595.88 1.121 1 1.28a27.74 27.74 0 011.83 2.976c-.19.63-.48 1.226-.86 1.765-.44.427-1.35.714-1.5-.575-.15-1.29-.21-2.143-.21-2.143s-1.93-3.402-2.65-3.442c-.72-.04-5.83 3.442-7.18 4.96-1.17 1.28-1.4 1.19-1.4 3.442 0 1.488.17 6.596.13 11.14 1.81.198 4.47.694 5.27 1.864 0 0-.29-7.122 7.81-3.392 0 0 .28-9.711 11.46-7.221a43.671 43.671 0 00-13.7-10.654zM45.932 19.194a89.015 89.015 0 00-1.4-16.397s-.15-1.29-.87-.238a14.057 14.057 0 00-1.2 3.968 71.461 71.461 0 00-12.82.337c-.82-2.728-2.22-3.968-2.89-3.64-.67.327-.75 3.253-.75 3.253l-.33 14.046a143.942 143.942 0 0120.26-1.33z" fill="#F06351"/><path d="M45.352 46.74c.13-1.062.2-2.47.24-4.028l-8.15 2.153a64.434 64.434 0 01-7.8 1.756l1.11 4.96c0 .108 0 .218.07.327a32.398 32.398 0 004.76 2.53 42.484 42.484 0 006.88-4.098v.06a15.115 15.115 0 002.89-3.66z" fill="#E55645"/><path d="M32.002 16.09c-.05-.1 1 .674 1.41.912.41.238.61.416.61.585 0 .169-.26.337-.62.337s-.92-.119-1-.258c-.08-.139.6 0 .94 0h.29a8.052 8.052 0 01-1.63-1.577zM39.502 16.198s-1 1.27-1.09 1.33c-.09.059-.17.337.19.287a8.146 8.146 0 001.22-.278c.11-.06.07-.198-.12-.178-.19.02-.68.05-1 .109l.85-1.26s.03-.119-.05-.01zM36.362 22.259a2.293 2.293 0 001.09-.992c.28-.655 0-.903-.44-.992-.606-.11-1.23.01-1.75.337-.39.367-.34.724 0 .992a5.17 5.17 0 001.1.655z" fill="#000"/><path d="M36.002 23.509c-.115.225-.271.427-.46.595-.285.227-.635.36-1 .377a2.193 2.193 0 01-1.54-.437 1.995 1.995 0 01-.53-.446 1.002 1.002 0 00-.36-.248s.75 4.077 2.57 4.731c1.82.655 2.16-.753 2.21-1.13a5.55 5.55 0 00-.82-3.214c0-.298-.02-.1-.07-.228z" fill="#F06351"/><path d="M34.301 24.64a3.518 3.518 0 01-2.35-1.419.148.148 0 010-.198.14.14 0 01.155-.031.14.14 0 01.045.03 3.209 3.209 0 002.11 1.3 2.121 2.121 0 001.64-.992l.14-.188.1.218s.38.754 1 .794c.62.04 1.06-.417 1.63-1.28a.144.144 0 01.2-.04.143.143 0 01.04.199c-.666.972-1.296 1.438-1.89 1.398a1.557 1.557 0 01-1.12-.724 2.254 2.254 0 01-1.7.933z" fill="#000"/><path d="M36.262 37.99c2.07 0 3.75-1.665 3.75-3.719s-1.68-3.72-3.75-3.72c-2.072 0-3.75 1.666-3.75 3.72 0 2.054 1.678 3.72 3.75 3.72z" fill="#FDC305"/><path d="M41.232 31.246l-3.13 1.3 1.15-5.585-7.5 9.68 3.13-1.298-1.15 5.594 7.5-9.691zm-7.39 3.799l4.16-5.366-.81 3.967 2-.813-4.19 5.376.81-3.968-1.97.804zM32.441 33.587c.62 0 1.12-.498 1.12-1.111 0-.614-.5-1.111-1.12-1.111-.618 0-1.12.497-1.12 1.11 0 .614.502 1.112 1.12 1.112zM38.962 37.614c.436 0 .79-.35.79-.784a.787.787 0 00-.79-.783c-.436 0-.79.35-.79.783 0 .433.354.784.79.784zM39.922 35.462c.193 0 .35-.156.35-.348a.349.349 0 00-.35-.347.349.349 0 00-.35.347c0 .192.157.348.35.348z" fill="#111"/><path d="M45.882 20.99a57.219 57.219 0 00-5.09 5.167 31.79 31.79 0 01-5.31 4.86c-.22-.525-1.63-1.507-1.63-1.507s-3.14-2.133-5.2-3.81a31.78 31.78 0 01-3.14-2.975l-2-.109a22.62 22.62 0 0012 8.769c.86-.14 3.28-1.855 5.09-3.254a57.44 57.44 0 006-5.862 6.314 6.314 0 001.14-1.984c-1.14.377-1.86.704-1.86.704z" fill="#F06351"/><path d="M65.223 3.472l-8.46 9.364-1.22-1.974L63.693 0l1.53 3.472zM62.653 17.12l5.54-4.076-.78-3.71-5.4 4.771.64 3.016zM59.923 48.972l6.13 3.154 3.01-2.321-6.69-2.728-2.45 1.895zM1.95 5.922l3.07-3.333 9.29 8.927-1.22 2.262L1.95 5.922zM7.38 16.149l-4.7-3.105-2.4 3.839 5.15 2.38 1.95-3.114zM13.91 52.126l-4.55 3.323L12.16 59l4.02-3.988-2.27-2.886z" fill="#FDC305"/><path d="M25.931 27.774s-3.81-1.428-5.21-1.815a3.788 3.788 0 00-4 .625 5.032 5.032 0 00-1.285 1.722 4.994 4.994 0 00-.445 2.097c.211.46.372.943.48 1.438.05.476-1.2.426-2 .426s-.92-1.428-.29-3.104c.491-1.29 1.1-2.531 1.82-3.71C9.55 28.27 0 34.777 0 34.777a46.196 46.196 0 018.19.238c5.25.526 5 4.632 5 4.632a38.924 38.924 0 015.63-1.1c2.121-.14 2.271 2.102 2.271 2.102l.53 3.83a18.248 18.248 0 012.65-2.342 6.095 6.095 0 014.38-1.29l-2.72-13.073z" fill="#F06351"/><path d="M85.664 41.661a8.174 8.174 0 01-1.4-5.148v-7.44a8.301 8.301 0 011.38-5.197c.927-1.184 2.51-1.773 4.75-1.766 2.24.007 3.757.526 4.55 1.558a6.628 6.628 0 011.33 4.453v1.746h-4.14v-1.895a9.84 9.84 0 00-.13-1.488 1.66 1.66 0 00-.47-.942 1.565 1.565 0 00-1.15-.367 1.47 1.47 0 00-.868.137 1.455 1.455 0 00-.632.607 5.386 5.386 0 00-.34 2.182v9.444a4.707 4.707 0 00.39 2.182 1.476 1.476 0 001.45.724c.282.04.569-.01.82-.142.252-.132.455-.34.58-.592a5.75 5.75 0 00.31-2.172V35.56h4.14v1.716a7.147 7.147 0 01-1.23 4.572c-.88 1.092-2.4 1.627-4.56 1.627-2.16 0-3.85-.595-4.78-1.815zM101.915 22.398h4.74l4 20.83h-3.94l-.71-4.602h-3.32l-.8 4.573h-4l4.03-20.801zm3.65 13.61l-1.26-8.373-1.25 8.372h2.51zM113.725 25.532h-3.24v-3.134h10.72v3.134h-3.2V43.2h-4.29l.01-17.667z" fill="#111"/><path d="M129.616 22.398h8.13v2.162h-5.2v6.874h4.22v2.054h-4.22v7.627h5.25V43.2h-8.18V22.398zM140.157 22.398h2l6 13.817V22.398h2.44v20.83h-1.87l-6-14.204v14.175h-2.48l-.09-20.801zM153.828 22.398h8.12v2.162h-5.2v6.874h4.26v2.054h-4.22v7.627h5.22V43.2h-8.18V22.398zM164.358 22.398h4.22a7.042 7.042 0 014.67 1.3c1 .862 1.49 2.27 1.49 4.225 0 2.645-.863 4.262-2.59 4.85l3 10.426h-2.84l-2.75-9.761h-2.27v9.76h-2.93v-20.8zm4 8.927a3.891 3.891 0 002.7-.754 3.536 3.536 0 00.82-2.688 5.76 5.76 0 00-.29-1.984 1.883 1.883 0 00-1-1.071 4.794 4.794 0 00-2.05-.347h-1.29v6.884l1.11-.04zM178.679 41.661a9.113 9.113 0 01-1.27-5.307v-6.943a13.27 13.27 0 01.5-3.968 4.443 4.443 0 011.74-2.39 5.947 5.947 0 013.36-.834 5.298 5.298 0 014.18 1.468 6.904 6.904 0 011.28 4.593v.774h-2.75v-.645a11.309 11.309 0 00-.18-2.301 1.98 1.98 0 00-.76-1.22 3.02 3.02 0 00-1.72-.407 2.534 2.534 0 00-1.81.555 2.53 2.53 0 00-.77 1.468 14.484 14.484 0 00-.17 2.47v7.727a7.39 7.39 0 00.59 3.432 2.85 2.85 0 004.47-.09 7.994 7.994 0 00.61-3.62v-1.467h-2.66v-2.054h5.3V43.2h-1.81l-.29-2.391a3.661 3.661 0 01-1.4 1.969 3.71 3.71 0 01-2.33.68 4.698 4.698 0 01-2.288-.375 4.656 4.656 0 01-1.822-1.42zM194.699 35.858l-4.53-13.46h2.72l3.21 10.038 3.16-10.038h2.75l-4.5 13.46v7.34h-2.8l-.01-7.34z" fill="#444"/></g></g></symbol><symbol id="logo-mobile"><g fill="none"><g clip-path="url(#clip0_153_267)"><path d="M6.07 20.72v-2.26a143.265 143.265 0 0120.17-1.33c0 .6 0 1.21-.06 1.82a25.518 25.518 0 016-1.82A16.67 16.67 0 00.19 20.39l5.88.33zM27.24 24.23c-1.16 1.28-1.39 1.2-1.39 3.45v9.18A16.64 16.64 0 0033.32 23a17.302 17.302 0 00-.32-3.1 33.109 33.109 0 00-5.76 4.33zM6.36 25.72s-3.79-1.44-5.19-1.83A8.541 8.541 0 000 23.61a16.65 16.65 0 008.68 14L6.36 25.72z" fill="#FDC305"/><path d="M26.29 17.12A89.799 89.799 0 0024.89.65S24.75-.64 24 .41a14.22 14.22 0 00-1.2 3.94 70.34 70.34 0 00-12.77.34C9.24 2 7.85.75 7.18 1c-.67.25-.72 3.31-.72 3.31l-.33 14.1a143.211 143.211 0 0120.16-1.29z" fill="#F06351"/><path d="M12.41 14c0-.09 1 .68 1.41.92.41.24.61.42.61.59 0 .17-.27.34-.63.34s-.91-.12-1-.27h1.23A8.34 8.34 0 0112.41 14zM19.89 14.11l-1.09 1.33c0 .06-.17.35.18.3a7.351 7.351 0 001.22-.29c.11 0 .07-.19-.11-.17-.18.02-.69.05-1 .11l.84-1.26s.07-.13-.04-.02zM16.75 20.2a2.3 2.3 0 001.09-1c.28-.65 0-.91-.44-1a2.43 2.43 0 00-1.74.34c-.39.36-.34.72-.05 1a5.34 5.34 0 001.14.66z" fill="#000"/><path d="M16.35 21.45a1.92 1.92 0 01-.46.6 1.73 1.73 0 01-1 .38 2.15 2.15 0 01-1.47-.43 2.3 2.3 0 01-.53-.44c-.1-.11-.223-.2-.36-.26 0 0 .75 4.1 2.57 4.75 1.82.65 2.14-.75 2.2-1.13a5.61 5.61 0 00-.82-3.23c-.02-.31-.03-.11-.13-.24z" fill="#F06351"/><path d="M14.71 22.59a3.44 3.44 0 01-2.361-1.466.14.14 0 01.031-.154.14.14 0 01.2 0 3.26 3.26 0 002.11 1.3 2.09 2.09 0 001.63-1l.14-.19.1.21s.37.76 1 .8c.63.04 1.05-.41 1.61-1.28a.14.14 0 01.2 0 .15.15 0 01.05.2c-.64 1-1.27 1.44-1.88 1.4a1.549 1.549 0 01-1.12-.76 2.26 2.26 0 01-1.71.94z" fill="#000"/><path d="M26.24 18.92a58.634 58.634 0 00-5.07 5.19A31.633 31.633 0 0115.88 29c-.22-.53-1.62-1.51-1.62-1.51s-3.13-2.14-5.18-3.82a34.139 34.139 0 01-3.13-3l-2-.11a22.57 22.57 0 0012 8.8c.86-.14 3.27-1.86 5.07-3.26a58.13 58.13 0 005.94-5.89 6.15 6.15 0 001.14-2c-1.1.39-1.86.71-1.86.71z" fill="#F06351"/></g></g></symbol><symbol id="logo-name"><g fill="none"><g clip-path="url(#clip0_135_3354)" fill="#111"><path d="M1.264 16.538A6.865 6.865 0 010 12.231V5.846a6.95 6.95 0 011.185-4.384C2.055.462 3.398 0 5.374 0s3.24.462 4.03 1.308a5.422 5.422 0 011.186 3.769v1.538H6.718V4.846a3.693 3.693 0 00-.238-1.538 1.12 1.12 0 00-.456-.473 1.163 1.163 0 00-.65-.143c-.553 0-.948.154-1.106.539a4.846 4.846 0 00-.237 1.692v8.23a3.111 3.111 0 00.316 1.616c.158.385.553.539 1.106.539s.87-.154 1.027-.539c.18-.52.26-1.067.238-1.615v-1.846h3.872v1.538a5.775 5.775 0 01-1.185 3.846c-.79.923-2.134 1.385-4.031 1.385-1.897-.077-3.32-.539-4.11-1.539zM15.253.23h4.504l3.32 17.54H19.44l-.632-3.693h-2.608l-.632 3.692h-3.715L15.253.231zm3.24 11.54l-.948-6.847-.949 6.846h1.897zM25.843 3.154h-2.687V.23h9.404v2.846h-2.687v14.692h-4.03V3.154zM39.752.23h6.955v1.847h-4.505v5.77h3.635v1.768h-3.635v6.462h4.505v1.77h-7.034V.23h.079zM48.761.23H50.5l5.137 11.616V.231h2.055v17.538h-1.58l-5.217-12v12h-2.134V.231zM60.063.23h6.954v1.847h-4.504v5.77h3.635v1.768h-3.635v6.462h4.504v1.77h-6.954V.23zM69.072.23h3.635a6.451 6.451 0 014.03 1.078c.87.692 1.265 1.923 1.265 3.538 0 2.23-.71 3.616-2.212 4.077l2.528 8.77h-2.45l-2.37-8.231h-1.976v8.23h-2.529V.231h.079zm3.477 7.54a3.524 3.524 0 002.292-.616c.474-.385.711-1.154.711-2.308a4.848 4.848 0 00-.237-1.692 1.975 1.975 0 00-.869-.923 3.69 3.69 0 00-1.739-.308h-1.106v5.77h.948v.076zM81.163 16.462A7.613 7.613 0 0180.058 12V6.154a12.26 12.26 0 01.395-3.308 3.916 3.916 0 011.502-2c.882-.508 1.9-.75 2.924-.692 1.66 0 2.845.384 3.556 1.23a5.771 5.771 0 011.107 3.847v.615H87.17v-.538a11.03 11.03 0 00-.158-1.923 1.533 1.533 0 00-.633-1A2.493 2.493 0 0084.878 2a2.417 2.417 0 00-1.58.462c-.187.152-.338.34-.447.551a1.701 1.701 0 00-.186.68 14.01 14.01 0 00-.158 2.076v6.539a6.818 6.818 0 00.474 2.923c.316.615.949.846 1.897.846.374.045.754-.018 1.092-.182.337-.165.617-.422.805-.741a6.908 6.908 0 00.553-3.077v-1.23h-2.292v-1.77h4.584v8.692h-1.58l-.238-2a3.143 3.143 0 01-1.226 1.658 3.288 3.288 0 01-2.014.573 4.046 4.046 0 01-1.899-.352 3.932 3.932 0 01-1.5-1.186zM94.678 11.615L90.805.308h2.371l2.766 8.461L98.63.308H101l-3.873 11.307v6.154h-2.37v-6.154h-.08z"/></g></g></symbol><symbol id="logo-tablet"><g fill="none"><g clip-path="url(#clip0_2403_706)"><path d="M51.582 20.854a22.231 22.231 0 00-6.936-9.09 21.96 21.96 0 00-10.503-4.396A21.887 21.887 0 0022.865 8.83a22.083 22.083 0 00-9.058 6.934 22.354 22.354 0 00-4.43 10.564 22.432 22.432 0 001.373 11.386 22.238 22.238 0 006.813 9.184 21.965 21.965 0 0010.442 4.54c-.5-1.815-1.008-3.822-1.456-5.951a27.756 27.756 0 004.1 2.215s.104 1.877.241 3.971c1.54.027 3.08-.11 4.592-.408a1.874 1.874 0 010-.66c.25-1.625.939-4.553 1.077-6.439a13.212 13.212 0 002.498-3.224l-.052.383c-.474 3.701-1.464 7.655-2.067 8.75a4.845 4.845 0 01-.715.999 22.006 22.006 0 008.563-4.141 22.237 22.237 0 006.047-7.386 22.45 22.45 0 00.749-18.694zm-1.266 3.293c-.38.374-1.163.626-1.293-.504-.129-1.13-.163-1.92-.163-1.92s-1.663-2.98-2.283-3.015c-.62-.035-5.022 3.015-6.185 4.344-1.008 1.121-1.206 1.043-1.206 3.015 0 1.486.19 7.1.086 11.392l-7.02 1.886a54.724 54.724 0 01-6.72 1.494l-.861-5.066h-.12L22.335 24.33s-3.282-1.252-4.488-1.59a3.213 3.213 0 00-3.445.547c-.472.417-.85.931-1.107 1.509a4.437 4.437 0 00-.384 1.836c.182.404.321.826.414 1.26.043.417-1.034.374-1.723.374-.69 0-.793-1.251-.25-2.72.424-1.129.948-2.217 1.568-3.25a10.312 10.312 0 011.783-2.51s.12-.296 1.077-.21c.956.088 6.271.374 6.271.374l.043-1.972a121.95 121.95 0 0117.436-1.165v1.59a19.265 19.265 0 017.011-1.737.778.778 0 01.664.339c.293.373 2.076 2.607 2.283 2.928.579.835 1.105 1.705 1.576 2.607a5.44 5.44 0 01-.75 1.599v.008z" fill="#FDC305"/><path d="M48.636 18.83c.405.52.758.981.862 1.12.579.835 1.105 1.706 1.576 2.607a5.444 5.444 0 01-.74 1.547c-.38.373-1.164.625-1.293-.504-.13-1.13-.18-1.877-.18-1.877s-1.663-2.98-2.283-3.015c-.62-.035-5.023 3.015-6.186 4.344-1.008 1.121-1.206 1.043-1.206 3.015 0 1.304.147 5.779.112 9.758 1.56.174 3.851.609 4.54 1.634 0 0-.25-6.239 6.728-2.972 0 0 .241-8.506 9.872-6.325a37.712 37.712 0 00-11.802-9.333zM39.565 16.814A79.266 79.266 0 0038.36 2.45s-.129-1.13-.749-.208a12.474 12.474 0 00-1.034 3.475 60.536 60.536 0 00-11.043.296c-.707-2.39-1.913-3.476-2.49-3.189-.577.287-.646 2.85-.646 2.85l-.284 12.304a121.956 121.956 0 0117.452-1.165z" fill="#F06351"/><path d="M39.065 40.943c.112-.93.172-2.163.207-3.527l-7.02 1.885a54.724 54.724 0 01-6.72 1.538l.957 4.345c0 .095 0 .19.06.286a27.759 27.759 0 004.1 2.216 36.485 36.485 0 005.927-3.589v.053a13.21 13.21 0 002.49-3.207z" fill="#E55645"/><path d="M27.566 14.094c-.043-.087.861.59 1.214.8.353.208.526.364.526.512 0 .148-.224.295-.534.295-.31 0-.793-.104-.862-.226-.069-.121.517 0 .81 0h.25a6.987 6.987 0 01-1.404-1.381zM34.026 14.19s-.861 1.112-.939 1.164c-.077.052-.146.295.164.252a6.911 6.911 0 001.051-.244c.095-.052.06-.173-.103-.156-.164.017-.586.043-.862.096l.732-1.104s.026-.104-.043-.009zM31.322 19.498c.399-.177.729-.482.938-.868.242-.574 0-.791-.379-.87a2.095 2.095 0 00-1.507.296c-.336.322-.293.634 0 .869.29.23.61.423.948.573z" fill="#000"/><path d="M31.011 20.593a1.78 1.78 0 01-.396.522c-.245.199-.547.314-.861.33a1.866 1.866 0 01-1.327-.383 1.724 1.724 0 01-.456-.39.862.862 0 00-.31-.218s.645 3.572 2.213 4.145c1.568.573 1.86-.66 1.904-.99a4.925 4.925 0 00-.706-2.816c0-.26-.018-.087-.06-.2z" fill="#F06351"/><path d="M29.547 21.584a2.998 2.998 0 01-2.024-1.243.131.131 0 010-.173.122.122 0 01.086-.037.121.121 0 01.086.037 2.785 2.785 0 001.817 1.138 1.806 1.806 0 001.413-.87l.12-.164.087.191s.327.66.861.695c.534.035.913-.365 1.404-1.12a.123.123 0 01.172-.035.125.125 0 01.035.173c-.574.852-1.117 1.26-1.628 1.225a1.328 1.328 0 01-.965-.634 1.954 1.954 0 01-1.464.817z" fill="#000"/><path d="M31.235 33.28c1.784 0 3.23-1.46 3.23-3.259 0-1.8-1.446-3.258-3.23-3.258s-3.23 1.458-3.23 3.258 1.446 3.258 3.23 3.258z" fill="#FDC305"/><path d="M35.516 27.37l-2.696 1.14.99-4.893-6.46 8.48 2.697-1.138-.991 4.901 6.46-8.49zM29.151 30.7l3.583-4.701-.698 3.476 1.723-.713-3.61 4.71.699-3.476-1.697.704zM27.945 29.422a.969.969 0 00.965-.974.969.969 0 00-.965-.973.969.969 0 00-.965.973c0 .538.432.974.965.974zM33.561 32.95c.376 0 .68-.308.68-.687a.684.684 0 00-.68-.687.684.684 0 00-.68.687c0 .379.304.686.68.686zM34.388 31.064a.303.303 0 00.302-.304.303.303 0 00-.302-.305.303.303 0 00-.301.305c0 .168.135.304.301.304z" fill="#111"/><path d="M39.522 18.386a49.73 49.73 0 00-4.384 4.527 27.555 27.555 0 01-4.574 4.258c-.19-.46-1.405-1.32-1.405-1.32s-2.704-1.869-4.48-3.337a27.578 27.578 0 01-2.704-2.607l-1.723-.096a19.507 19.507 0 0010.337 7.681c.741-.121 2.826-1.624 4.385-2.85a49.885 49.885 0 005.169-5.135c.429-.514.761-1.103.982-1.738-.982.33-1.603.617-1.603.617zM22.337 24.33s-3.282-1.252-4.488-1.59a3.214 3.214 0 00-3.446.547c-.472.417-.85.931-1.107 1.509a4.439 4.439 0 00-.383 1.836c.182.404.32.826.413 1.26.043.417-1.033.374-1.723.374-.689 0-.792-1.251-.25-2.72.424-1.129.949-2.217 1.568-3.25C8.227 24.764 0 30.464 0 30.464a39.136 39.136 0 017.055.209c4.523.46 4.307 4.058 4.307 4.058a33.033 33.033 0 014.85-.965c1.826-.121 1.956 1.842 1.956 1.842l.456 3.354a15.804 15.804 0 012.283-2.05 5.189 5.189 0 013.773-1.13L22.337 24.33z" fill="#F06351"/><path d="M73.79 36.495a7.25 7.25 0 01-1.206-4.51v-6.517a7.364 7.364 0 011.189-4.553c.798-1.037 2.162-1.553 4.091-1.547 1.93.006 3.236.46 3.92 1.364a5.875 5.875 0 011.145 3.902v1.53h-3.566v-1.66a8.768 8.768 0 00-.112-1.304 1.464 1.464 0 00-.405-.825 1.341 1.341 0 00-.99-.322 1.248 1.248 0 00-1.292.652 4.79 4.79 0 00-.293 1.911v8.273c-.04.654.076 1.31.336 1.911a1.265 1.265 0 001.25.634c.241.035.488-.008.705-.124.216-.115.391-.297.5-.519a5.114 5.114 0 00.267-1.902V31.15h3.566v1.503a6.342 6.342 0 01-1.06 4.006c-.758.955-2.067 1.425-3.928 1.425-1.86 0-3.316-.522-4.117-1.59zM87.788 19.62h4.083l3.446 18.247h-3.394l-.612-4.031h-2.86l-.689 4.005h-3.445l3.471-18.22zm3.144 11.922l-1.085-7.334-1.077 7.334h2.162zM97.962 22.366H95.17V19.62h9.234v2.746h-2.757V37.84h-3.695l.008-15.475z" fill="#111"/><path d="M111.65 19.62h7.003v1.894h-4.479v6.022h3.635v1.799h-3.635v6.682h4.522v1.824h-7.046v-18.22zM120.729 19.62h1.723l5.168 12.104V19.62h2.102v18.247h-1.611l-5.168-12.442V37.84h-2.136l-.078-18.22zM132.505 19.62h6.994v1.894h-4.479v6.022h3.67v1.799h-3.635v6.682h4.496v1.824h-7.046v-18.22zM141.576 19.62h3.635a5.994 5.994 0 014.023 1.138c.861.756 1.283 1.99 1.283 3.702 0 2.317-.744 3.733-2.231 4.249l2.584 9.132h-2.446l-2.369-8.55H144.1v8.55h-2.524v-18.22zm3.445 7.82c.83.081 1.66-.154 2.326-.66a3.115 3.115 0 00.706-2.355 5.12 5.12 0 00-.249-1.738 1.645 1.645 0 00-.862-.938 4.068 4.068 0 00-1.766-.304h-1.111v6.03l.956-.035zM153.911 36.495a8.104 8.104 0 01-1.094-4.65v-6.082a11.857 11.857 0 01.431-3.475 3.894 3.894 0 011.499-2.094 5.056 5.056 0 012.894-.73c.657-.063 1.32.02 1.941.241a4.526 4.526 0 011.66 1.045 6.12 6.12 0 011.102 4.023v.678h-2.368v-.565a10.088 10.088 0 00-.155-2.016 1.742 1.742 0 00-.655-1.069 2.567 2.567 0 00-1.482-.356 2.158 2.158 0 00-1.559.486 2.229 2.229 0 00-.663 1.287c-.109.715-.158 1.439-.147 2.163v6.769a6.575 6.575 0 00.509 3.006 2.434 2.434 0 001.944.912 2.426 2.426 0 001.906-.99 7.111 7.111 0 00.526-3.171V30.62h-2.292v-1.799h4.566v9.02h-1.56l-.249-2.095a3.211 3.211 0 01-1.206 1.725 3.158 3.158 0 01-2.007.595 3.985 3.985 0 01-1.971-.328 4.02 4.02 0 01-1.57-1.244zM167.711 31.411l-3.902-11.79h2.343l2.765 8.793 2.722-8.794h2.369l-3.876 11.791v6.43h-2.412l-.009-6.43z" fill="#444"/></g></g></symbol></svg>